<?xml version="1.0" standalone="no"?>
<!DOCTYPE svg PUBLIC "-//W3C//DTD SVG 20010904//EN"
 "http://www.w3.org/TR/2001/REC-SVG-20010904/DTD/svg10.dtd">
<svg version="1.0" xmlns="http://www.w3.org/2000/svg"
 width="35" height="35" viewBox="0 0 500.000000 500.000000"
 preserveAspectRatio="xMidYMid meet">

<g transform="translate(0.000000,500.000000) scale(0.100000,-0.100000)"
fill="#ffffff" stroke="none">
<path d="M2340 4499 c-1214 -133 -2089 -1194 -1979 -2399 92 -1012 869 -1835
1874 -1985 876 -131 1757 285 2215 1045 365 605 419 1328 149 1985 -127 309
-342 607 -593 823 -317 271 -686 445 -1090 513 -140 23 -442 33 -576 18z m431
-34 c500 -53 934 -251 1286 -589 190 -182 322 -359 439 -590 142 -277 209
-524 235 -856 38 -503 -121 -1026 -441 -1451 -85 -112 -302 -328 -420 -416
-327 -244 -687 -385 -1098 -428 -172 -19 -252 -19 -422 0 -160 17 -207 26
-359 65 -748 196 -1356 816 -1540 1569 -103 420 -88 821 45 1221 241 726 874
1289 1619 1440 236 48 436 59 656 35z"/>
<path d="M2299 3980 c-405 -37 -747 -300 -876 -675 -41 -121 -55 -204 -60
-376 l-6 -165 -56 -30 c-138 -72 -302 -223 -396 -364 -121 -182 -184 -375
-192 -590 -12 -329 94 -612 320 -847 182 -189 435 -314 696 -344 119 -14 287
-4 388 22 63 16 86 17 137 9 36 -6 335 -10 724 -10 l663 0 -3 38 -3 37 -640 3
-640 2 84 50 c273 163 461 417 538 730 22 89 26 128 26 250 0 184 -27 319 -98
483 -6 14 -2 17 24 17 24 0 43 12 86 55 30 31 55 62 55 71 0 8 -7 45 -15 83
-15 66 -15 68 9 124 21 47 36 63 83 94 32 21 61 42 65 48 4 5 8 47 8 92 l0 83
-66 44 c-58 39 -69 52 -90 102 -23 56 -23 60 -9 122 8 35 15 70 15 78 0 16
-84 110 -111 125 -11 6 -42 3 -88 -7 -69 -16 -73 -16 -130 6 -54 20 -64 28
-105 91 l-46 69 -85 0 -85 0 -44 -68 c-39 -59 -51 -70 -101 -91 -57 -24 -58
-24 -133 -7 l-76 16 -35 -28 c-19 -16 -48 -45 -64 -64 l-29 -37 16 -72 c16
-71 16 -74 -6 -131 -20 -53 -30 -64 -84 -98 -45 -28 -76 -40 -120 -45 -70 -8
-202 -38 -261 -59 l-43 -15 0 42 c1 128 21 299 45 382 96 332 337 563 680 649
111 28 298 36 848 36 l547 0 0 -1535 0 -1535 35 0 35 0 2 1535 c1 844 2 1552
3 1573 l0 37 -625 1 c-344 1 -664 -2 -711 -6z m329 -952 c96 -46 160 -164 149
-275 -6 -61 -50 -147 -90 -177 l-26 -19 -68 55 c-92 75 -172 125 -271 169 -45
20 -85 39 -87 41 -11 11 29 99 62 137 81 95 215 123 331 69z m-557 -263 c249
-52 453 -177 613 -377 78 -97 166 -268 195 -378 93 -349 10 -708 -228 -979
-155 -178 -347 -287 -591 -337 -135 -28 -248 -30 -375 -8 -222 38 -395 127
-561 286 -433 416 -434 1095 -1 1515 161 157 345 251 560 287 99 17 283 13
388 -9z"/>
<path d="M1802 2089 c-115 -15 -227 -102 -280 -217 -35 -77 -36 -189 -2 -277
32 -83 123 -173 204 -204 182 -68 373 7 463 182 35 69 43 190 19 269 -53 168
-222 271 -404 247z m175 -110 c56 -27 126 -106 142 -160 62 -204 -112 -401
-315 -359 -147 31 -247 181 -215 324 40 178 227 272 388 195z"/>
<path d="M2630 1625 c0 -65 -34 -186 -75 -270 -109 -224 -310 -365 -557 -392
l-58 -6 0 -44 0 -44 53 6 c218 25 388 110 526 262 105 116 182 299 194 461 l4
52 -43 0 c-40 0 -44 -2 -44 -25z"/>
</g>
</svg>
