<svg xmlns="http://www.w3.org/2000/svg" xmlns:xlink="http://www.w3.org/1999/xlink" width="500" zoomAndPan="magnify" viewBox="0 0 375 374.999991" height="500" preserveAspectRatio="xMidYMid meet" version="1.0"><defs><clipPath id="19a9c28bac"><path d="M 106.988281 140.539062 L 112.988281 140.539062 L 112.988281 234.289062 L 106.988281 234.289062 Z M 106.988281 140.539062 " clip-rule="nonzero"/></clipPath><clipPath id="11ab141f1e"><path d="M 107.1875 234.496094 L 185.9375 234.496094 L 185.9375 313.246094 L 107.1875 313.246094 Z M 107.1875 234.496094 " clip-rule="nonzero"/></clipPath><clipPath id="d2b40ca696"><path d="M 138.292969 97.617188 L 244.792969 97.617188 L 244.792969 204.117188 L 138.292969 204.117188 Z M 138.292969 97.617188 " clip-rule="nonzero"/></clipPath><clipPath id="77cdced0e4"><path d="M 106.988281 61.855469 L 185.738281 61.855469 L 185.738281 140.605469 L 106.988281 140.605469 Z M 106.988281 61.855469 " clip-rule="nonzero"/></clipPath><clipPath id="37bc4b6675"><path d="M 182.621094 61.714844 L 276.371094 61.714844 L 276.371094 67.714844 L 182.621094 67.714844 Z M 182.621094 61.714844 " clip-rule="nonzero"/></clipPath><clipPath id="727ab6791e"><path d="M 270.316406 64.839844 L 276.316406 64.839844 L 276.316406 296 L 270.316406 296 Z M 270.316406 64.839844 " clip-rule="nonzero"/></clipPath><clipPath id="e1f28e0746"><path d="M 182.621094 307.246094 L 276.371094 307.246094 L 276.371094 313.246094 L 182.621094 313.246094 Z M 182.621094 307.246094 " clip-rule="nonzero"/></clipPath><clipPath id="bb91d194bd"><path d="M 52.796875 136.171875 L 223.796875 136.171875 L 223.796875 307.171875 L 52.796875 307.171875 Z M 52.796875 136.171875 " clip-rule="nonzero"/></clipPath><clipPath id="aaf69521a4"><path d="M 8.164062 13.613281 L 356.914062 13.613281 L 356.914062 362.363281 L 8.164062 362.363281 Z M 8.164062 13.613281 " clip-rule="nonzero"/></clipPath></defs><g clip-path="url(#19a9c28bac)"><path fill="#ffffff" d="M 112.941406 -302.96875 L 112.941406 272.167969 L 106.96875 272.167969 L 106.96875 -302.96875 L 112.941406 -302.96875 " fill-opacity="1" fill-rule="nonzero"/></g><g clip-path="url(#11ab141f1e)"><path fill="#ffffff" d="M 107.1875 234.496094 L 113.488281 234.496094 C 113.488281 277.152344 143.28125 306.945312 185.9375 306.945312 L 185.9375 313.246094 C 140.308594 313.246094 107.1875 280.128906 107.1875 234.496094 Z M 107.1875 234.496094 " fill-opacity="1" fill-rule="nonzero"/></g><g clip-path="url(#d2b40ca696)"><path fill="#ffffff" d="M 199.40625 99.792969 C 198.785156 98.816406 197.75 98.1875 196.601562 98.085938 C 193.402344 97.792969 190.179688 97.792969 186.980469 98.085938 C 185.832031 98.1875 184.796875 98.816406 184.179688 99.792969 L 178.863281 108.167969 C 175.988281 109.03125 173.207031 110.1875 170.5625 111.609375 C 170.566406 111.601562 160.882812 109.441406 160.882812 109.441406 C 159.757812 109.191406 158.578125 109.476562 157.695312 110.214844 C 155.226562 112.269531 152.945312 114.550781 150.890625 117.023438 C 150.152344 117.902344 149.863281 119.082031 150.117188 120.207031 L 152.277344 129.890625 C 150.859375 132.53125 149.707031 135.316406 148.839844 138.191406 C 148.84375 138.1875 140.46875 143.503906 140.46875 143.503906 C 139.492188 144.121094 138.863281 145.15625 138.757812 146.308594 C 138.46875 149.507812 138.46875 152.726562 138.757812 155.925781 C 138.863281 157.074219 139.492188 158.109375 140.46875 158.730469 L 148.84375 164.046875 C 149.707031 166.917969 150.859375 169.703125 152.28125 172.347656 C 152.277344 172.34375 150.117188 182.027344 150.117188 182.027344 C 149.863281 183.152344 150.152344 184.328125 150.890625 185.210938 C 152.945312 187.683594 155.226562 189.960938 157.695312 192.019531 C 158.578125 192.753906 159.757812 193.042969 160.882812 192.789062 L 170.566406 190.628906 C 173.207031 192.046875 175.988281 193.203125 178.867188 194.066406 C 178.863281 194.0625 184.179688 202.441406 184.179688 202.441406 C 184.796875 203.414062 185.832031 204.042969 186.980469 204.148438 C 190.179688 204.441406 193.402344 204.441406 196.601562 204.148438 C 197.75 204.042969 198.785156 203.414062 199.40625 202.441406 L 204.71875 194.0625 C 207.59375 193.203125 210.378906 192.046875 213.023438 190.625 C 213.015625 190.628906 222.703125 192.789062 222.703125 192.789062 C 223.824219 193.042969 225.003906 192.753906 225.886719 192.019531 C 228.359375 189.960938 230.636719 187.683594 232.691406 185.210938 C 233.429688 184.328125 233.71875 183.152344 233.464844 182.027344 L 231.304688 172.34375 C 232.722656 169.703125 233.875 166.917969 234.742188 164.039062 C 234.738281 164.046875 243.113281 158.730469 243.113281 158.730469 C 244.089844 158.109375 244.71875 157.074219 244.824219 155.925781 C 245.117188 152.726562 245.117188 149.507812 244.824219 146.308594 C 244.71875 145.15625 244.089844 144.121094 243.113281 143.503906 L 234.738281 138.1875 C 233.875 135.316406 232.722656 132.53125 231.300781 129.886719 C 231.304688 129.890625 233.464844 120.207031 233.464844 120.207031 C 233.71875 119.082031 233.429688 117.902344 232.691406 117.023438 C 230.636719 114.550781 228.359375 112.269531 225.886719 110.214844 C 225.003906 109.476562 223.824219 109.191406 222.703125 109.441406 L 213.015625 111.601562 C 210.378906 110.1875 207.59375 109.03125 204.714844 108.164062 C 204.71875 108.167969 199.40625 99.792969 199.40625 99.792969 Z M 191.792969 130.757812 C 203.027344 130.757812 212.148438 139.882812 212.148438 151.117188 C 212.148438 162.351562 203.027344 171.476562 191.792969 171.476562 C 180.558594 171.476562 171.433594 162.351562 171.433594 151.117188 C 171.433594 139.882812 180.558594 130.757812 191.792969 130.757812 Z M 191.792969 130.757812 " fill-opacity="1" fill-rule="evenodd"/></g><g clip-path="url(#77cdced0e4)"><path fill="#ffffff" d="M 185.738281 61.855469 L 185.738281 68.15625 C 143.085938 68.15625 113.289062 97.949219 113.289062 140.605469 L 106.988281 140.605469 C 106.988281 94.972656 140.109375 61.855469 185.738281 61.855469 Z M 185.738281 61.855469 " fill-opacity="1" fill-rule="nonzero"/></g><g clip-path="url(#37bc4b6675)"><path fill="#ffffff" d="M -260.890625 61.761719 L 314.25 61.761719 L 314.25 67.734375 L -260.890625 67.734375 L -260.890625 61.761719 " fill-opacity="1" fill-rule="nonzero"/></g><g clip-path="url(#727ab6791e)"><path fill="#ffffff" d="M 276.269531 -279.355469 L 276.269531 295.78125 L 270.296875 295.78125 L 270.296875 -279.355469 L 276.269531 -279.355469 " fill-opacity="1" fill-rule="nonzero"/></g><g clip-path="url(#e1f28e0746)"><path fill="#ffffff" d="M -260.890625 307.292969 L 314.25 307.292969 L 314.25 313.265625 L -260.890625 313.265625 L -260.890625 307.292969 " fill-opacity="1" fill-rule="nonzero"/></g><g clip-path="url(#bb91d194bd)"><path fill="#ffffff" d="M 52.796875 221.671875 C 52.796875 198.097656 62.386719 176.722656 77.867188 161.242188 C 93.347656 145.757812 114.722656 136.171875 138.296875 136.171875 C 161.867188 136.171875 183.246094 145.757812 198.726562 161.242188 C 214.207031 176.722656 223.796875 198.097656 223.796875 221.671875 C 223.796875 245.246094 214.207031 266.621094 198.726562 282.101562 C 183.246094 297.582031 161.867188 307.171875 138.296875 307.171875 C 114.722656 307.171875 93.347656 297.582031 77.867188 282.101562 C 62.386719 266.621094 52.796875 245.246094 52.796875 221.671875 Z M 82.703125 166.078125 C 68.457031 180.320312 59.636719 199.984375 59.636719 221.671875 C 59.636719 243.355469 68.457031 263.023438 82.703125 277.265625 C 96.945312 291.507812 116.609375 300.332031 138.296875 300.332031 C 159.980469 300.332031 179.644531 291.507812 193.890625 277.265625 C 208.132812 263.023438 216.957031 243.355469 216.957031 221.671875 C 216.957031 199.984375 208.132812 180.320312 193.890625 166.078125 C 179.644531 151.832031 159.980469 143.011719 138.296875 143.011719 C 116.609375 143.011719 96.945312 151.832031 82.703125 166.078125 " fill-opacity="1" fill-rule="nonzero"/></g><path fill="#ffffff" d="M 110.933594 221.671875 C 110.933594 214.125 114.003906 207.285156 118.957031 202.332031 C 123.910156 197.378906 130.75 194.308594 138.296875 194.308594 C 145.839844 194.308594 152.679688 197.378906 157.636719 202.332031 C 162.589844 207.285156 165.660156 214.125 165.660156 221.671875 C 165.660156 229.214844 162.589844 236.054688 157.636719 241.011719 C 152.679688 245.964844 145.839844 249.03125 138.296875 249.03125 C 130.75 249.03125 123.910156 245.964844 118.957031 241.011719 C 114.003906 236.054688 110.933594 229.214844 110.933594 221.671875 Z M 123.792969 207.167969 C 120.078125 210.882812 117.773438 216.015625 117.773438 221.671875 C 117.773438 227.328125 120.078125 232.457031 123.792969 236.171875 C 127.507812 239.890625 132.640625 242.191406 138.296875 242.191406 C 143.953125 242.191406 149.082031 239.890625 152.800781 236.171875 C 156.515625 232.457031 158.816406 227.328125 158.816406 221.671875 C 158.816406 216.015625 156.515625 210.882812 152.800781 207.167969 C 149.082031 203.453125 143.953125 201.148438 138.296875 201.148438 C 132.640625 201.148438 127.507812 203.453125 123.792969 207.167969 " fill-opacity="1" fill-rule="nonzero"/><path fill="#ffffff" d="M 202.222656 227.457031 C 202.222656 243.484375 195.703125 258.023438 185.175781 268.546875 C 174.648438 279.078125 160.113281 285.597656 144.082031 285.597656 L 144.082031 278.757812 C 158.222656 278.757812 171.050781 273 180.339844 263.714844 C 189.628906 254.425781 195.382812 241.597656 195.382812 227.457031 L 202.222656 227.457031 " fill-opacity="1" fill-rule="nonzero"/><path fill="#000000" d="M 157.636719 202.332031 C 162.589844 207.285156 165.660156 214.125 165.660156 221.671875 C 165.660156 229.214844 162.589844 236.054688 157.636719 241.011719 C 152.679688 245.964844 145.839844 249.03125 138.296875 249.03125 C 130.75 249.03125 123.910156 245.964844 118.957031 241.011719 C 114.003906 236.054688 110.933594 229.214844 110.933594 221.671875 C 110.933594 214.125 114.003906 207.285156 118.957031 202.332031 C 123.910156 197.378906 130.75 194.308594 138.296875 194.308594 C 145.839844 194.308594 152.679688 197.378906 157.636719 202.332031 Z M 82.703125 277.265625 C 96.945312 291.507812 116.609375 300.332031 138.296875 300.332031 C 159.980469 300.332031 179.644531 291.507812 193.890625 277.265625 C 208.132812 263.023438 216.957031 243.355469 216.957031 221.671875 C 216.957031 199.984375 208.132812 180.320312 193.890625 166.078125 C 179.644531 151.832031 159.980469 143.011719 138.296875 143.011719 C 116.609375 143.011719 96.945312 151.832031 82.703125 166.078125 C 68.457031 180.320312 59.636719 199.984375 59.636719 221.671875 C 59.636719 243.355469 68.457031 263.023438 82.703125 277.265625 Z M 180.339844 263.714844 C 171.050781 273 158.222656 278.757812 144.082031 278.757812 L 144.082031 285.597656 C 160.113281 285.597656 174.648438 279.078125 185.175781 268.546875 C 195.703125 258.023438 202.222656 243.484375 202.222656 227.457031 L 195.382812 227.457031 C 195.382812 241.597656 189.628906 254.425781 180.339844 263.714844 " fill-opacity="1" fill-rule="evenodd"/><g clip-path="url(#aaf69521a4)"><path fill="#ffffff" d="M 182.539062 362.363281 C 86.203125 362.363281 8.164062 283.789062 8.164062 187.988281 C 8.164062 92.191406 86.203125 13.613281 182.539062 13.613281 C 278.875 13.613281 356.914062 91.652344 356.914062 187.988281 C 356.914062 284.324219 278.335938 362.363281 182.539062 362.363281 Z M 182.539062 24.378906 C 92.121094 24.378906 18.929688 97.574219 18.929688 187.988281 C 18.929688 278.40625 92.121094 351.601562 182.539062 351.601562 C 272.957031 351.601562 346.148438 278.40625 346.148438 187.988281 C 346.148438 97.574219 272.417969 24.378906 182.539062 24.378906 Z M 182.539062 24.378906 " fill-opacity="1" fill-rule="nonzero"/></g></svg>